#N canvas 708 86 452 402 10;
#N canvas 308 368 730 586 Pattern 0;
#X obj 484 149 print attack;
#X obj 457 130 fiddle~ 1024 1 20 3;
#X obj 90 76 r t1;
#X floatatom 130 323 5 0 0 0 - - - 0;
#X floatatom 166 323 5 0 0 0 - - - 0;
#X floatatom 203 323 5 0 0 0 - - - 0;
#X floatatom 240 323 5 0 0 0 - - - 0;
#X floatatom 276 323 5 0 0 0 - - - 0;
#X floatatom 312 323 5 0 0 0 - - - 0;
#X floatatom 348 323 5 0 0 0 - - - 0;
#X obj 418 190 bng 15 250 50 0 empty empty empty 17 7 0 10 #dfdfdf #000000 #000000;
#X obj 140 75 r t2;
#X obj 191 76 r t3;
#X obj 228 76 r t4;
#X obj 292 77 r t5;
#X obj 342 76 r t6;
#X obj 393 75 r t7;
#X msg 289 511 0;
#X text 570 149 Deteccion de eventos;
#X obj 246 214 tgl 60 0 start/stop empty empty 17 7 0 10 #dfdfdf #000000 #000000 0 1;
#X obj 290 489 r clear2;
#X obj 108 259 bng 32 250 50 0 empty empty empty 17 7 0 10 #ffc7c6 #000000 #000000;
#X obj 107 490 s clear;
#X obj 107 508 s clear2;
#N canvas 130 130 712 631 GUARDAR 0;
#X floatatom 263 329 5 0 0 0 - - - 0;
#X msg 223 226 clear;
#X obj 350 329 bng 15 250 50 0 empty empty empty 17 7 0 10 #fcfcfc #000000 #000000;
#X obj 265 197 bng 15 250 50 0 empty empty empty 17 7 0 10 #fcfcfc #000000 #000000;
#X obj 110 274 metro 10;
#X obj 110 251 tgl 15 0 empty empty empty 17 7 0 10 #fcfcfc #000000 #000000 0 1;
#X obj 152 296 + 1;
#X obj 110 299 f;
#X floatatom 111 356 5 0 0 0 - - - 0;
#X msg 191 358 0;
#X obj 120 379 bng 15 250 50 0 empty empty empty 17 7 0 10 #fcfcfc #000000 #000000;
#X obj 98 405 f 1;
#X obj 111 212 loadbang;
#X msg 111 231 1;
#X obj 110 327 * 10;
#X msg 273 228 write qlist.txt;
#X obj 275 284 delay 10;
#X msg 191 338 start;
#X msg 264 150 stop;
#X msg 97 450 add bang\$1 \$2;
#X obj 97 429 pack f f;
#X obj 126 405 f;
#X obj 159 405 + 1;
#X obj 265 257 t b;
#X obj 262 307 qlist qlist.txt;
#X obj 224 203 bng 15 250 50 0 empty empty empty 17 7 0 10 #fcfcfc #000000 #000000;
#X obj 191 318 delay 10;
#X obj 339 9 tgl 15 0 empty start/stop empty 17 7 0 10 #fcfcfc #000000 #000000 0 1;
#X obj 230 106 select 1 0;
#X obj 294 256 s clear;
#X obj 264 130 s clear2;
#X obj 265 177 delay 50;
#X obj 322 176 delay 50;
#X obj 127 73 inlet;
#X msg 547 540 add inten\$1 \$2;
#X obj 553 515 pack f f;
#X obj 610 69 inlet;
#X floatatom 550 400 5 0 0 0 - - - 0;
#X msg 507 281 clear;
#X obj 637 400 bng 15 250 50 0 empty empty empty 17 7 0 10 #fcfcfc #000000 #000000;
#X obj 549 252 bng 15 250 50 0 empty empty empty 17 7 0 10 #fcfcfc #000000 #000000;
#X obj 559 339 delay 10;
#X msg 548 205 stop;
#X obj 549 312 t b;
#X obj 508 258 bng 15 250 50 0 empty empty empty 17 7 0 10 #fcfcfc #000000 #000000;
#X obj 514 161 select 1 0;
#X obj 549 232 delay 50;
#X obj 606 231 delay 50;
#X obj 548 185 s clear3;
#X obj 578 311 s clearrr;
#X obj 549 378 qlist qlist2.txt;
#X msg 557 283 write qlist2.txt;
#X connect 1 0 23 0;
#X connect 1 0 29 0;
#X connect 1 0 24 0;
#X connect 3 0 24 0;
#X connect 4 0 7 0;
#X connect 5 0 4 0;
#X connect 6 0 7 1;
#X connect 7 0 6 0;
#X connect 7 0 14 0;
#X connect 8 0 11 1;
#X connect 9 0 7 1;
#X connect 9 0 8 0;
#X connect 9 0 21 1;
#X connect 10 0 11 0;
#X connect 10 0 21 0;
#X connect 11 0 20 1;
#X connect 12 0 13 0;
#X connect 13 0 5 0;
#X connect 14 0 8 0;
#X connect 15 0 24 0;
#X connect 16 0 26 0;
#X connect 17 0 9 0;
#X connect 18 0 15 0;
#X connect 19 0 24 0;
#X connect 20 0 19 0;
#X connect 21 0 22 0;
#X connect 21 0 20 0;
#X connect 21 0 35 0;
#X connect 22 0 21 1;
#X connect 23 0 16 0;
#X connect 24 0 0 0;
#X connect 24 1 2 0;
#X connect 25 0 1 0;
#X connect 26 0 17 0;
#X connect 27 0 28 0;
#X connect 27 0 5 0;
#X connect 27 0 45 0;
#X connect 28 0 25 0;
#X connect 28 1 18 0;
#X connect 28 1 30 0;
#X connect 28 1 31 0;
#X connect 31 0 3 0;
#X connect 31 0 32 0;
#X connect 32 0 3 0;
#X connect 33 0 10 0;
#X connect 34 0 50 0;
#X connect 35 0 34 0;
#X connect 36 0 35 1;
#X connect 38 0 43 0;
#X connect 38 0 49 0;
#X connect 38 0 50 0;
#X connect 40 0 50 0;
#X connect 42 0 51 0;
#X connect 43 0 41 0;
#X connect 44 0 38 0;
#X connect 45 0 44 0;
#X connect 45 1 42 0;
#X connect 45 1 46 0;
#X connect 45 1 48 0;
#X connect 46 0 40 0;
#X connect 46 0 47 0;
#X connect 47 0 40 0;
#X connect 50 0 37 0;
#X connect 50 1 39 0;
#X connect 51 0 50 0;
#X restore 483 170 pd GUARDAR EVENTOS EN LISTAS;
#X obj 111 127 oscope~ 320 60 256 3 128 -1 1 0 0 0 0 77 77 77 228 228 228 183 183 183 0 empty;
#X obj 458 110 delwrite~ \$0-delay 4000;
#X text 239 196 Record/Stop;
#X text 253 -25 Entrada Mono;
#X obj 273 -6 adc~ 1;
#N canvas 52 52 611 534 Output 0;
#X obj 118 119 hsl 240 40 0 127 0 0 \$0-v \$0-v volume 202 32 0 10 #dfdfdf #000000 #000000 0 0;
#X obj 371 119 tgl 40 0 THIS_IS_HERE_TO_GET_RID_OF_THE_OUTLET \$0-dsp-toggle dsp 20 32 0 10 #d8fcd8 #bcbcbc #202020 0 1;
#N canvas 1019 468 429 371 dsp 0;
#X obj 36 30 inlet;
#X obj 117 227 select 0 1;
#X msg 150 252 6;
#X obj 117 86 route dsp;
#X obj 117 59 receive pd;
#X msg 36 228 dsp \$1;
#X obj 36 253 send pd;
#X msg 231 279 set \$1;
#X msg 117 279 color \$1 20 12;
#X obj 231 310 send \$0-dsp-toggle;
#X msg 117 251 0;
#X obj 251 129 loadbang;
#X obj 231 99 sig~ 1;
#X obj 231 191 snapshot~;
#X obj 251 158 delay 100;
#X obj 117 138 change -1;
#X text 6 3 comment;
#X connect 0 0 5 0;
#X connect 0 0 15 0;
#X connect 1 0 10 0;
#X connect 1 1 2 0;
#X connect 2 0 8 0;
#X connect 3 0 15 0;
#X connect 4 0 3 0;
#X connect 5 0 6 0;
#X connect 7 0 9 0;
#X connect 8 0 9 0;
#X connect 10 0 8 0;
#X connect 11 0 14 0;
#X connect 12 0 13 0;
#X connect 13 0 1 0;
#X connect 13 0 7 0;
#X connect 14 0 13 0;
#X connect 15 0 7 0;
#X connect 15 0 1 0;
#X restore 99 234 pd dsp logic;
#X obj 189 250 inlet~;
#X obj 74 338 line~;
#X obj 174 398 *~;
#X obj 194 428 dac~;
#X text 201 270 audio in;
#X obj 251 250 inlet~;
#X obj 236 397 *~;
#X obj 189 321 hip~ 3;
#X obj 251 321 hip~ 3;
#X obj 10 353 send pd;
#X msg 10 332 dsp 1;
#X obj 74 317 pack 0 50;
#X msg 74 282 0;
#X obj 74 259 moses 0.011;
#X text 295 322 filter out DC;
#X connect 0 0 13 0;
#X connect 0 0 16 0;
#X connect 1 0 2 0;
#X connect 3 0 10 0;
#X connect 4 0 9 0;
#X connect 4 0 5 0;
#X connect 5 0 6 0;
#X connect 8 0 11 0;
#X connect 9 0 6 1;
#X connect 10 0 5 1;
#X connect 11 0 9 1;
#X connect 13 0 12 0;
#X connect 14 0 4 0;
#X connect 15 0 14 0;
#X connect 16 0 15 0;
#X connect 16 1 14 0;
#X coords 0 -1 1 1 320 70 1 100 100;
#X restore 110 352 pd Output;
#X text 360 423 Ludique 2024;
#X text 555 250 FORERO;
#N canvas 42 158 1301 386 SECUENCIA 0;
#X floatatom 105 111 5 0 0 0 - - - 0;
#X floatatom 222 110 5 0 0 0 - - - 0;
#X floatatom 344 110 5 0 0 0 - - - 0;
#X obj 107 161 *~ 0.5;
#X obj 223 163 *~ 0.5;
#X obj 343 163 *~ 0.5;
#X obj 656 350 outlet~;
#X obj 653 296 *~ 1;
#X obj 106 137 delread4~ \$0-delay;
#X obj 223 137 delread4~ \$0-delay;
#X obj 344 137 delread4~ \$0-delay;
#X floatatom 465 110 5 0 0 0 - - - 0;
#X obj 464 163 *~ 0.5;
#X obj 465 137 delread4~ \$0-delay;
#X floatatom 583 107 5 0 0 0 - - - 0;
#X obj 582 160 *~ 0.5;
#X obj 583 134 delread4~ \$0-delay;
#X floatatom 700 105 5 0 0 0 - - - 0;
#X obj 699 158 *~ 0.5;
#X obj 700 132 delread4~ \$0-delay;
#X floatatom 820 104 5 0 0 0 - - - 0;
#X obj 819 157 *~ 0.5;
#X obj 820 131 delread4~ \$0-delay;
#X floatatom 937 103 5 0 0 0 - - - 0;
#X floatatom 1055 99 5 0 0 0 - - - 0;
#X obj 939 153 *~ 0.5;
#X obj 1056 152 *~ 0.5;
#X obj 938 129 delread4~ \$0-delay;
#X obj 1056 126 delread4~ \$0-delay;
#X obj 105 80 r t1;
#X obj 223 81 r t2;
#X obj 345 72 r t3;
#X obj 468 73 r t4;
#X obj 586 74 r t5;
#X obj 697 81 r t6;
#X obj 819 70 r t7;
#X obj 936 72 r t8;
#X obj 1054 76 r t9;
#X obj 141 58 r i1;
#X obj 256 54 r i2;
#X obj 378 48 r i3;
#X obj 500 51 r i4;
#X obj 614 50 r i5;
#X obj 726 53 r i6;
#X obj 853 49 r i7;
#X obj 968 49 r i8;
#X obj 1088 51 r i9;
#X text 49 80 Tiempo;
#X text 43 53 Intensidad;
#X connect 0 0 8 0;
#X connect 1 0 9 0;
#X connect 2 0 10 0;
#X connect 3 0 7 0;
#X connect 4 0 7 0;
#X connect 5 0 7 0;
#X connect 7 0 6 0;
#X connect 8 0 3 0;
#X connect 9 0 4 0;
#X connect 10 0 5 0;
#X connect 11 0 13 0;
#X connect 12 0 7 0;
#X connect 13 0 12 0;
#X connect 14 0 16 0;
#X connect 15 0 7 0;
#X connect 16 0 15 0;
#X connect 17 0 19 0;
#X connect 18 0 7 0;
#X connect 19 0 18 0;
#X connect 20 0 22 0;
#X connect 21 0 7 0;
#X connect 22 0 21 0;
#X connect 23 0 27 0;
#X connect 24 0 28 0;
#X connect 25 0 7 0;
#X connect 26 0 7 0;
#X connect 27 0 25 0;
#X connect 28 0 26 0;
#X connect 29 0 0 0;
#X connect 30 0 1 0;
#X connect 31 0 2 0;
#X connect 32 0 11 0;
#X connect 33 0 14 0;
#X connect 34 0 17 0;
#X connect 35 0 20 0;
#X connect 36 0 23 0;
#X connect 37 0 24 0;
#X connect 38 0 3 1;
#X connect 39 0 4 1;
#X connect 40 0 5 1;
#X connect 41 0 12 1;
#X connect 42 0 15 1;
#X connect 43 0 18 1;
#X connect 44 0 21 1;
#X connect 45 0 25 1;
#X connect 46 0 26 1;
#X restore 483 232 pd SECUENCIA DELAY;
#N canvas 78 78 390 440 REGISTRO 0;
#X obj 48 94 r inten0;
#X floatatom 49 116 5 0 0 0 - - - 0;
#X floatatom 111 116 5 0 0 0 - - - 0;
#X obj 111 97 r inten1;
#X floatatom 172 119 5 0 0 0 - - - 0;
#X floatatom 235 120 5 0 0 0 - - - 0;
#X obj 172 96 r inten2;
#X obj 235 99 r inten3;
#X obj 49 137 dbtorms;
#X obj 110 136 dbtorms;
#X obj 172 140 dbtorms;
#X obj 235 140 dbtorms;
#X obj 43 188 s i1;
#X obj 104 188 s i2;
#X obj 167 193 s i3;
#X obj 232 194 s i4;
#X floatatom 42 300 5 0 0 0 - - - 0;
#X floatatom 104 299 5 0 0 0 - - - 0;
#X floatatom 171 298 5 0 0 0 - - - 0;
#X floatatom 238 300 5 0 0 0 - - - 0;
#X obj 43 323 dbtorms;
#X obj 104 319 dbtorms;
#X obj 173 324 dbtorms;
#X obj 239 320 dbtorms;
#X obj 41 278 r inten4;
#X obj 105 275 r inten5;
#X obj 172 274 r inten6;
#X obj 236 275 r inten7;
#X obj 42 367 s i5;
#X obj 105 362 s i6;
#X obj 173 365 s i7;
#X obj 240 370 s i8;
#X obj 144 15 r reg_intensidad;
#X obj 43 165 + 0;
#X obj 105 167 + 0;
#X obj 168 172 + 0;
#X obj 232 170 + 0;
#X obj 42 347 + 0;
#X obj 104 342 + 0;
#X obj 173 345 + 0;
#X obj 238 347 + 0;
#X obj 142 41 t b f;
#X connect 0 0 1 0;
#X connect 1 0 8 0;
#X connect 2 0 9 0;
#X connect 3 0 2 0;
#X connect 4 0 10 0;
#X connect 5 0 11 0;
#X connect 6 0 4 0;
#X connect 7 0 5 0;
#X connect 8 0 33 0;
#X connect 9 0 34 0;
#X connect 10 0 35 0;
#X connect 11 0 36 0;
#X connect 16 0 20 0;
#X connect 17 0 21 0;
#X connect 18 0 22 0;
#X connect 19 0 23 0;
#X connect 20 0 37 0;
#X connect 21 0 38 0;
#X connect 22 0 39 0;
#X connect 23 0 40 0;
#X connect 24 0 16 0;
#X connect 25 0 17 0;
#X connect 26 0 18 0;
#X connect 27 0 19 0;
#X connect 32 0 41 0;
#X connect 33 0 12 0;
#X connect 34 0 13 0;
#X connect 35 0 14 0;
#X connect 36 0 15 0;
#X connect 37 0 28 0;
#X connect 38 0 29 0;
#X connect 39 0 30 0;
#X connect 40 0 31 0;
#X connect 41 0 33 0;
#X connect 41 0 34 0;
#X connect 41 0 35 0;
#X connect 41 0 36 0;
#X connect 41 0 37 0;
#X connect 41 0 38 0;
#X connect 41 0 39 0;
#X connect 41 0 40 0;
#X connect 41 1 36 1;
#X connect 41 1 35 1;
#X connect 41 1 34 1;
#X connect 41 1 33 1;
#X connect 41 1 37 1;
#X connect 41 1 38 1;
#X connect 41 1 39 1;
#X connect 41 1 40 1;
#X restore 484 191 pd REGISTRO INTENSIDADES;
#X floatatom 130 299 5 0 0 0 - - - 0;
#X floatatom 166 299 5 0 0 0 - - - 0;
#X floatatom 203 299 5 0 0 0 - - - 0;
#X floatatom 240 299 5 0 0 0 - - - 0;
#X floatatom 276 299 5 0 0 0 - - - 0;
#X floatatom 312 299 5 0 0 0 - - - 0;
#X floatatom 348 299 5 0 0 0 - - - 0;
#X obj 72 36 r i1;
#X obj 125 35 r i2;
#X obj 224 33 r i4;
#X obj 275 32 r i5;
#X obj 324 32 r i6;
#X obj 374 28 r i7;
#X obj 174 35 r i3;
#X obj 203 488 r clear3;
#X obj 108 526 s clear3;
#X floatatom 403 272 5 0 100 0 +db - - 12;
#X obj 403 508 s reg_intensidad;
#X obj 428 28 r i8;
#X obj 444 75 r t8;
#X floatatom 384 323 5 0 0 0 - - - 0;
#X floatatom 384 299 5 0 0 0 - - - 0;
#X obj 109 323 bng 15 250 50 0 empty empty empty 17 7 0 10 #ffc7c6 #000000 #000000;
#X obj 109 299 bng 15 250 50 0 empty empty empty 17 7 0 10 #ffc7c6 #000000 #000000;
#X text 426 325 T;
#X text 102 242 Reset;
#N canvas 104 104 615 440 REGISTRO 0;
#X obj 107 116 r bang1;
#X obj 52 115 r bang0;
#X obj 162 116 r bang2;
#X obj 217 116 r bang3;
#X obj 269 116 r bang4;
#X obj 95 170 -;
#X floatatom 95 196 5 0 0 0 - - - 0;
#X obj 143 171 -;
#X floatatom 144 196 5 0 0 0 - - - 0;
#X obj 183 172 -;
#X floatatom 184 197 5 0 0 0 - - - 0;
#X obj 242 171 -;
#X floatatom 243 196 5 0 0 0 - - - 0;
#X obj 285 168 -;
#X floatatom 286 192 5 0 0 0 - - - 0;
#X obj 336 166 -;
#X floatatom 337 193 5 0 0 0 - - - 0;
#X obj 380 168 -;
#X floatatom 381 193 5 0 0 0 - - - 0;
#X obj 431 167 -;
#X floatatom 432 192 5 0 0 0 - - - 0;
#X obj 321 115 r bang5;
#X obj 379 116 r bang6;
#X obj 431 116 r bang7;
#X obj 486 116 r bang8;
#X obj 538 116 r bang9;
#X obj 62 266 s t1;
#X obj 111 265 s t2;
#X obj 113 232 +;
#X obj 165 231 +;
#X obj 161 261 s t3;
#X obj 220 230 +;
#X obj 266 230 +;
#X obj 309 225 +;
#X obj 368 227 +;
#X obj 412 228 +;
#X obj 218 260 s t4;
#X obj 263 260 s t5;
#X obj 308 259 s t6;
#X obj 365 259 s t7;
#X obj 412 257 s t8;
#X obj 490 166 -;
#X floatatom 491 191 5 0 0 0 - - - 0;
#X obj 464 228 +;
#X obj 463 257 s t9;
#X obj 87 337 tgl 15 0 empty empty empty 17 7 0 10 #fcfcfc #000000 #000000 0 1;
#X obj 141 333 tgl 15 0 empty empty empty 17 7 0 10 #fcfcfc #000000 #000000 0 1;
#X obj 202 334 tgl 15 0 empty empty empty 17 7 0 10 #fcfcfc #000000 #000000 0 1;
#X obj 247 334 tgl 15 0 empty empty empty 17 7 0 10 #fcfcfc #000000 #000000 0 1;
#X obj 87 314 != 0;
#X obj 141 310 != 0;
#X obj 202 311 != 0;
#X obj 246 310 != 0;
#X obj 87 363 s i1;
#X obj 141 357 s i2;
#X obj 202 361 s i3;
#X obj 247 359 s i4;
#X obj 294 333 tgl 15 0 empty empty empty 17 7 0 10 #fcfcfc #000000 #000000 0 1;
#X obj 293 309 != 0;
#X obj 339 333 tgl 15 0 empty empty empty 17 7 0 10 #fcfcfc #000000 #000000 0 1;
#X obj 338 309 != 0;
#X obj 294 358 s i5;
#X obj 339 358 s i6;
#X obj 389 330 tgl 15 0 empty empty empty 17 7 0 10 #fcfcfc #000000 #000000 0 1;
#X obj 388 306 != 0;
#X obj 434 330 tgl 15 0 empty empty empty 17 7 0 10 #fcfcfc #000000 #000000 0 1;
#X obj 433 306 != 0;
#X obj 389 355 s i7;
#X obj 435 355 s i8;
#X msg 337 67 0;
#X obj 337 35 r clear;
#X connect 0 0 5 0;
#X connect 0 0 7 1;
#X connect 1 0 5 1;
#X connect 2 0 7 0;
#X connect 2 0 9 1;
#X connect 3 0 9 0;
#X connect 3 0 11 1;
#X connect 4 0 11 0;
#X connect 4 0 13 1;
#X connect 5 0 6 0;
#X connect 6 0 26 0;
#X connect 6 0 28 0;
#X connect 6 0 49 0;
#X connect 7 0 8 0;
#X connect 8 0 28 1;
#X connect 8 0 50 0;
#X connect 9 0 10 0;
#X connect 10 0 29 1;
#X connect 10 0 51 0;
#X connect 11 0 12 0;
#X connect 12 0 31 1;
#X connect 12 0 52 0;
#X connect 13 0 14 0;
#X connect 14 0 32 1;
#X connect 14 0 58 0;
#X connect 15 0 16 0;
#X connect 16 0 33 1;
#X connect 16 0 60 0;
#X connect 17 0 18 0;
#X connect 18 0 34 1;
#X connect 18 0 64 0;
#X connect 19 0 20 0;
#X connect 20 0 35 1;
#X connect 20 0 66 0;
#X connect 21 0 13 0;
#X connect 21 0 15 1;
#X connect 22 0 15 0;
#X connect 22 0 17 1;
#X connect 23 0 17 0;
#X connect 23 0 19 1;
#X connect 24 0 19 0;
#X connect 24 0 41 1;
#X connect 25 0 41 0;
#X connect 28 0 27 0;
#X connect 28 0 29 0;
#X connect 29 0 30 0;
#X connect 29 0 31 0;
#X connect 31 0 32 0;
#X connect 31 0 36 0;
#X connect 32 0 33 0;
#X connect 32 0 37 0;
#X connect 33 0 34 0;
#X connect 33 0 38 0;
#X connect 34 0 39 0;
#X connect 34 0 35 0;
#X connect 35 0 40 0;
#X connect 35 0 43 0;
#X connect 41 0 42 0;
#X connect 42 0 43 1;
#X connect 43 0 44 0;
#X connect 45 0 53 0;
#X connect 46 0 54 0;
#X connect 47 0 55 0;
#X connect 48 0 56 0;
#X connect 49 0 45 0;
#X connect 50 0 46 0;
#X connect 51 0 47 0;
#X connect 52 0 48 0;
#X connect 57 0 61 0;
#X connect 58 0 57 0;
#X connect 59 0 62 0;
#X connect 60 0 59 0;
#X connect 63 0 67 0;
#X connect 64 0 63 0;
#X connect 65 0 68 0;
#X connect 66 0 65 0;
#X connect 69 0 6 0;
#X connect 69 0 8 0;
#X connect 69 0 10 0;
#X connect 69 0 12 0;
#X connect 69 0 14 0;
#X connect 69 0 16 0;
#X connect 69 0 18 0;
#X connect 69 0 20 0;
#X connect 69 0 42 0;
#X connect 70 0 69 0;
#X restore 484 212 pd REGISTRO INTERVALOS;
#X obj 403 480 / 100;
#X obj 72 56 rmstodb;
#X obj 124 55 rmstodb;
#X obj 174 55 rmstodb;
#X msg 204 509 0;
#X obj 223 56 rmstodb;
#X obj 275 56 rmstodb;
#X obj 325 55 rmstodb;
#X obj 375 54 rmstodb;
#X obj 426 54 rmstodb;
#X text 420 301 db;
#X connect 1 1 0 0;
#X connect 1 1 10 0;
#X connect 1 1 24 0;
#X connect 1 3 24 1;
#X connect 2 0 3 0;
#X connect 11 0 4 0;
#X connect 12 0 5 0;
#X connect 13 0 6 0;
#X connect 14 0 7 0;
#X connect 15 0 8 0;
#X connect 16 0 9 0;
#X connect 17 0 4 0;
#X connect 17 0 5 0;
#X connect 17 0 3 0;
#X connect 17 0 6 0;
#X connect 17 0 7 0;
#X connect 17 0 8 0;
#X connect 17 0 9 0;
#X connect 17 0 55 0;
#X connect 20 0 17 0;
#X connect 21 0 22 0;
#X connect 21 0 23 0;
#X connect 21 0 50 0;
#X connect 29 0 25 0;
#X connect 29 0 1 0;
#X connect 29 0 26 0;
#X connect 33 0 30 0;
#X connect 33 0 30 1;
#X connect 42 0 63 0;
#X connect 43 0 64 0;
#X connect 44 0 67 0;
#X connect 45 0 68 0;
#X connect 46 0 69 0;
#X connect 47 0 70 0;
#X connect 48 0 65 0;
#X connect 49 0 66 0;
#X connect 51 0 62 0;
#X connect 53 0 71 0;
#X connect 54 0 55 0;
#X connect 57 0 17 0;
#X connect 58 0 66 0;
#X connect 62 0 52 0;
#X connect 63 0 35 0;
#X connect 64 0 36 0;
#X connect 65 0 37 0;
#X connect 66 0 35 0;
#X connect 66 0 36 0;
#X connect 66 0 37 0;
#X connect 66 0 38 0;
#X connect 66 0 39 0;
#X connect 66 0 40 0;
#X connect 66 0 41 0;
#X connect 66 0 56 0;
#X connect 67 0 38 0;
#X connect 68 0 39 0;
#X connect 69 0 40 0;
#X connect 70 0 41 0;
#X connect 71 0 56 0;
#X coords 0 -1 1 1 359 341 1 94 106;
#X restore 41 19 pd Pattern Delay by Example;
