#N canvas 625 136 341 346 10;
#N canvas 474 390 748 479 RiffRecorder 1;
#X obj 484 149 print attack;
#X obj 457 130 fiddle~ 1024 1 20 3;
#X obj 114 103 r t1;
#X floatatom 116 280 5 0 0 0 - - - 0;
#X floatatom 156 280 5 0 0 0 - - - 0;
#X floatatom 196 280 5 0 0 0 - - - 0;
#X floatatom 234 280 5 0 0 0 - - - 0;
#X floatatom 274 280 5 0 0 0 - - - 0;
#X floatatom 314 280 5 0 0 0 - - - 0;
#X floatatom 354 280 5 0 0 0 - - - 0;
#X obj 361 193 bng 15 250 50 0 empty empty empty 0 -8 0 10 #7c7c7c #000000 #000000;
#X obj 153 102 r t2;
#X obj 192 102 r t3;
#X obj 233 101 r t4;
#X obj 269 103 r t5;
#X obj 310 104 r t6;
#X obj 349 104 r t7;
#X msg 32 169 0;
#X text 570 149 Deteccion de eventos;
#X obj 222 214 tgl 50 0 start/stop empty empty 0 -8 0 10 #7c7c7c #000000 #000000 0 1;
#X obj 33 147 r clear2;
#X obj 116 256 bng 20 250 50 0 empty empty empty 0 -8 0 10 #ff0400 #000000 #000000;
#X obj 116 409 s clear;
#X obj 116 427 s clear2;
#N canvas 104 104 615 440 INTERVALOS 1;
#X obj 107 116 r bang1;
#X obj 52 115 r bang0;
#X obj 162 116 r bang2;
#X obj 217 116 r bang3;
#X obj 269 116 r bang4;
#X obj 95 170 -;
#X floatatom 95 196 5 0 0 0 - - - 0;
#X obj 143 171 -;
#X floatatom 144 196 5 0 0 0 - - - 0;
#X obj 183 172 -;
#X floatatom 184 197 5 0 0 0 - - - 0;
#X obj 242 171 -;
#X floatatom 243 196 5 0 0 0 - - - 0;
#X obj 285 168 -;
#X floatatom 286 192 5 0 0 0 - - - 0;
#X obj 336 166 -;
#X floatatom 337 193 5 0 0 0 - - - 0;
#X obj 380 168 -;
#X floatatom 381 193 5 0 0 0 - - - 0;
#X obj 431 167 -;
#X floatatom 432 192 5 0 0 0 - - - 0;
#X obj 321 115 r bang5;
#X obj 379 116 r bang6;
#X obj 431 116 r bang7;
#X obj 486 116 r bang8;
#X obj 538 116 r bang9;
#X obj 62 266 s t1;
#X obj 111 265 s t2;
#X obj 113 232 +;
#X obj 165 231 +;
#X obj 161 261 s t3;
#X obj 220 230 +;
#X obj 266 230 +;
#X obj 309 225 +;
#X obj 368 227 +;
#X obj 412 228 +;
#X obj 218 260 s t4;
#X obj 263 260 s t5;
#X obj 308 259 s t6;
#X obj 365 259 s t7;
#X obj 412 257 s t8;
#X obj 490 166 -;
#X floatatom 491 191 5 0 0 0 - - - 0;
#X obj 464 228 +;
#X obj 463 257 s t9;
#X obj 87 337 tgl 16 0 empty empty empty 0 -8 0 10 #fcfcfc #000000 #000000 0 1;
#X obj 141 333 tgl 16 0 empty empty empty 0 -8 0 10 #fcfcfc #000000 #000000 0 1;
#X obj 202 334 tgl 16 0 empty empty empty 0 -8 0 10 #fcfcfc #000000 #000000 0 1;
#X obj 247 334 tgl 16 0 empty empty empty 0 -8 0 10 #fcfcfc #000000 #000000 0 1;
#X obj 87 314 != 0;
#X obj 141 310 != 0;
#X obj 202 311 != 0;
#X obj 246 310 != 0;
#X obj 87 363 s i1;
#X obj 141 357 s i2;
#X obj 202 361 s i3;
#X obj 247 359 s i4;
#X obj 294 333 tgl 16 0 empty empty empty 0 -8 0 10 #fcfcfc #000000 #000000 0 1;
#X obj 293 309 != 0;
#X obj 339 333 tgl 16 0 empty empty empty 0 -8 0 10 #fcfcfc #000000 #000000 0 1;
#X obj 338 309 != 0;
#X obj 294 358 s i5;
#X obj 339 358 s i6;
#X obj 389 330 tgl 16 0 empty empty empty 0 -8 0 10 #fcfcfc #000000 #000000 0 1;
#X obj 388 306 != 0;
#X obj 434 330 tgl 16 0 empty empty empty 0 -8 0 10 #fcfcfc #000000 #000000 0 1;
#X obj 433 306 != 0;
#X obj 389 355 s i7;
#X obj 435 355 s i8;
#X msg 337 67 0;
#X obj 337 35 r clear;
#X connect 0 0 5 0 empty;
#X connect 0 0 7 1 empty;
#X connect 1 0 5 1 empty;
#X connect 2 0 7 0 empty;
#X connect 2 0 9 1 empty;
#X connect 3 0 9 0 empty;
#X connect 3 0 11 1 empty;
#X connect 4 0 11 0 empty;
#X connect 4 0 13 1 empty;
#X connect 5 0 6 0 empty;
#X connect 6 0 26 0 empty;
#X connect 6 0 28 0 empty;
#X connect 6 0 49 0 empty;
#X connect 7 0 8 0 empty;
#X connect 8 0 28 1 empty;
#X connect 8 0 50 0 empty;
#X connect 9 0 10 0 empty;
#X connect 10 0 29 1 empty;
#X connect 10 0 51 0 empty;
#X connect 11 0 12 0 empty;
#X connect 12 0 31 1 empty;
#X connect 12 0 52 0 empty;
#X connect 13 0 14 0 empty;
#X connect 14 0 32 1 empty;
#X connect 14 0 58 0 empty;
#X connect 15 0 16 0 empty;
#X connect 16 0 33 1 empty;
#X connect 16 0 60 0 empty;
#X connect 17 0 18 0 empty;
#X connect 18 0 34 1 empty;
#X connect 18 0 64 0 empty;
#X connect 19 0 20 0 empty;
#X connect 20 0 35 1 empty;
#X connect 20 0 66 0 empty;
#X connect 21 0 13 0 empty;
#X connect 21 0 15 1 empty;
#X connect 22 0 15 0 empty;
#X connect 22 0 17 1 empty;
#X connect 23 0 17 0 empty;
#X connect 23 0 19 1 empty;
#X connect 24 0 19 0 empty;
#X connect 24 0 41 1 empty;
#X connect 25 0 41 0 empty;
#X connect 28 0 27 0 empty;
#X connect 28 0 29 0 empty;
#X connect 29 0 30 0 empty;
#X connect 29 0 31 0 empty;
#X connect 31 0 32 0 empty;
#X connect 31 0 36 0 empty;
#X connect 32 0 33 0 empty;
#X connect 32 0 37 0 empty;
#X connect 33 0 34 0 empty;
#X connect 33 0 38 0 empty;
#X connect 34 0 39 0 empty;
#X connect 34 0 35 0 empty;
#X connect 35 0 40 0 empty;
#X connect 35 0 43 0 empty;
#X connect 41 0 42 0 empty;
#X connect 42 0 43 1 empty;
#X connect 43 0 44 0 empty;
#X connect 45 0 53 0 empty;
#X connect 46 0 54 0 empty;
#X connect 47 0 55 0 empty;
#X connect 48 0 56 0 empty;
#X connect 49 0 45 0 empty;
#X connect 50 0 46 0 empty;
#X connect 51 0 47 0 empty;
#X connect 52 0 48 0 empty;
#X connect 57 0 61 0 empty;
#X connect 58 0 57 0 empty;
#X connect 59 0 62 0 empty;
#X connect 60 0 59 0 empty;
#X connect 63 0 67 0 empty;
#X connect 64 0 63 0 empty;
#X connect 65 0 68 0 empty;
#X connect 66 0 65 0 empty;
#X connect 69 0 6 0 empty;
#X connect 69 0 8 0 empty;
#X connect 69 0 10 0 empty;
#X connect 69 0 12 0 empty;
#X connect 69 0 14 0 empty;
#X connect 69 0 16 0 empty;
#X connect 69 0 18 0 empty;
#X connect 69 0 20 0 empty;
#X connect 69 0 42 0 empty;
#X connect 70 0 69 0 empty;
#X restore 483 190 pd INTERVALOS DE TIEMPO;
#N canvas 130 130 623 631 GUARDAR 1;
#X floatatom 371 400 5 0 0 0 - - - 0;
#X msg 327 278 clear;
#X obj 458 400 bng 19 250 50 0 empty empty empty 17 7 0 10 #dfdfdf #000000 #000000;
#X obj 370 252 bng 19 250 50 0 empty empty empty 17 7 0 10 #dfdfdf #000000 #000000;
#X obj 110 274 metro 10;
#X obj 110 251 tgl 16 0 empty empty empty 0 -8 0 10 #fcfcfc #000000 #000000 0 1;
#X obj 152 296 + 1;
#X obj 110 299 f;
#X floatatom 111 356 5 0 0 0 - - - 0;
#X msg 244 358 0;
#X obj 120 379 bng 16 250 50 0 empty empty empty 0 -8 0 10 #fcfcfc #000000 #000000;
#X obj 98 405 f 1;
#X obj 111 212 loadbang;
#X msg 111 231 1;
#X obj 110 327 * 10;
#X msg 378 283 write qlist.txt;
#X obj 380 339 delay 10;
#X msg 244 338 start, f 7;
#X msg 369 205 stop, f 8;
#X msg 97 450 add bang\$1 \$2;
#X obj 97 429 pack f f;
#X obj 126 405 f;
#X obj 159 405 + 1;
#X obj 370 312 t b;
#X obj 370 378 qlist qlist.txt;
#X obj 335 234 bng 16 250 50 0 empty empty empty 0 -8 0 10 #fcfcfc #000000 #000000;
#X obj 244 318 delay 10;
#X obj 209 93 tgl 30 0 empty start/stop empty 0 -8 0 10 #fcfcfc #000000 #000000 0 1;
#X obj 335 161 select 1 0, f 12;
#X obj 399 311 s clear;
#X obj 369 185 s clear2;
#X obj 370 232 delay 50;
#X obj 427 231 delay 50;
#X obj 127 73 inlet;
#X connect 1 0 23 0 empty;
#X connect 1 0 29 0 empty;
#X connect 1 0 24 0 empty;
#X connect 3 0 24 0 empty;
#X connect 4 0 7 0 empty;
#X connect 5 0 4 0 empty;
#X connect 6 0 7 1 empty;
#X connect 7 0 6 0 empty;
#X connect 7 0 14 0 empty;
#X connect 8 0 11 1 empty;
#X connect 9 0 7 1 empty;
#X connect 9 0 8 0 empty;
#X connect 9 0 21 1 empty;
#X connect 10 0 11 0 empty;
#X connect 10 0 21 0 empty;
#X connect 11 0 20 1 empty;
#X connect 12 0 13 0 empty;
#X connect 13 0 5 0 empty;
#X connect 14 0 8 0 empty;
#X connect 15 0 24 0 empty;
#X connect 16 0 26 0 empty;
#X connect 17 0 9 0 empty;
#X connect 18 0 15 0 empty;
#X connect 19 0 24 0 empty;
#X connect 20 0 19 0 empty;
#X connect 21 0 22 0 empty;
#X connect 21 0 20 0 empty;
#X connect 22 0 21 1 empty;
#X connect 23 0 16 0 empty;
#X connect 24 0 0 0 empty;
#X connect 24 1 2 0 empty;
#X connect 25 0 1 0 empty;
#X connect 26 0 17 0 empty;
#X connect 27 0 28 0 empty;
#X connect 27 0 5 0 empty;
#X connect 28 0 25 0 empty;
#X connect 28 1 18 0 empty;
#X connect 28 1 30 0 empty;
#X connect 28 1 31 0 empty;
#X connect 31 0 3 0 empty;
#X connect 31 0 32 0 empty;
#X connect 32 0 3 0 empty;
#X connect 33 0 10 0 empty;
#X restore 483 170 pd GUARDAR EVENTOS EN LISTAS;
#X obj 136 130 oscope~ 240 60 256 3 128 -1 1 0 0 0 0 77 77 77 228 228 228 183 183 183 0 empty;
#X obj 458 110 delwrite~ \$0-delay 4000;
#X text 105 239 Reset;
#X text 208 196 Record/Stop;
#X text 212 -8 Entrada Mono;
#X obj 256 21 adc~ 1;
#N canvas 52 52 450 300 Output 1;
#X obj 165 118 hsl 160 40 0.01 1 1 0 \$0-v \$0-v volume 122 32 1 9 #ececec #9f9f9f #000000 0 0;
#X obj 117 118 tgl 40 0 THIS_IS_HERE_TO_GET_RID_OF_THE_OUTLET \$0-dsp-toggle dsp 22 32 1 9 #d8fcd8 #bcbcbc #202020 0 1;
#N canvas 1019 468 429 371 dsp 1;
#X obj 36 30 inlet;
#X obj 117 227 select 0 1;
#X msg 150 252 6;
#X obj 117 86 route dsp;
#X obj 117 59 receive pd;
#X msg 36 228 dsp \$1;
#X obj 36 253 send pd;
#X msg 231 279 set \$1;
#X msg 117 279 color \$1 20 12;
#X obj 231 310 send \$0-dsp-toggle;
#X msg 117 251 0;
#X obj 251 129 loadbang;
#X obj 231 99 sig~ 1;
#X obj 231 191 snapshot~;
#X obj 251 158 delay 100;
#X obj 117 138 change -1;
#X text 6 3 comment;
#X connect 0 0 5 0 empty;
#X connect 0 0 15 0 empty;
#X connect 1 0 10 0 empty;
#X connect 1 1 2 0 empty;
#X connect 2 0 8 0 empty;
#X connect 3 0 15 0 empty;
#X connect 4 0 3 0 empty;
#X connect 5 0 6 0 empty;
#X connect 7 0 9 0 empty;
#X connect 8 0 9 0 empty;
#X connect 10 0 8 0 empty;
#X connect 11 0 14 0 empty;
#X connect 12 0 13 0 empty;
#X connect 13 0 1 0 empty;
#X connect 13 0 7 0 empty;
#X connect 14 0 13 0 empty;
#X connect 15 0 7 0 empty;
#X connect 15 0 1 0 empty;
#X restore 99 234 pd dsp logic;
#X obj 189 250 inlet~;
#X obj 74 338 line~;
#X obj 174 398 *~;
#X obj 194 428 dac~;
#X text 201 270 audio in;
#X obj 251 250 inlet~;
#X obj 236 397 *~;
#X obj 189 321 hip~ 3;
#X obj 251 321 hip~ 3;
#X obj 10 353 send pd;
#X msg 10 332 dsp 1;
#X obj 74 317 pack 0 50;
#X msg 74 282 0;
#X obj 74 259 moses 0.011;
#X text 295 322 filter out DC;
#X connect 0 0 13 0 empty;
#X connect 0 0 16 0 empty;
#X connect 1 0 2 0 empty;
#X connect 3 0 10 0 empty;
#X connect 4 0 9 0 empty;
#X connect 4 0 5 0 empty;
#X connect 5 0 6 0 empty;
#X connect 8 0 11 0 empty;
#X connect 9 0 6 1 empty;
#X connect 10 0 5 1 empty;
#X connect 11 0 9 1 empty;
#X connect 13 0 12 0 empty;
#X connect 14 0 4 0 empty;
#X connect 15 0 14 0 empty;
#X connect 16 0 15 0 empty;
#X connect 16 1 14 0 empty;
#X coords 0 -1 1 1 240 70 1 100 100;
#X restore 131 305 pd Output;
#X text 312 381 Ludique 2024;
#X text 557 230 FORERO;
#N canvas 42 158 1301 386 SECUENCIA 1;
#X floatatom 105 111 5 0 0 0 - - - 0;
#X floatatom 222 110 5 0 0 0 - - - 0;
#X floatatom 344 110 5 0 0 0 - - - 0;
#X obj 107 161 *~ 0.5;
#X obj 223 163 *~ 0.5;
#X obj 343 163 *~ 0.5;
#X obj 656 350 outlet~;
#X obj 653 296 *~ 1;
#X obj 106 137 delread4~ \$0-delay;
#X obj 223 137 delread4~ \$0-delay;
#X obj 344 137 delread4~ \$0-delay;
#X floatatom 465 110 5 0 0 0 - - - 0;
#X obj 464 163 *~ 0.5;
#X obj 465 137 delread4~ \$0-delay;
#X floatatom 583 107 5 0 0 0 - - - 0;
#X obj 582 160 *~ 0.5;
#X obj 583 134 delread4~ \$0-delay;
#X floatatom 700 105 5 0 0 0 - - - 0;
#X obj 699 158 *~ 0.5;
#X obj 700 132 delread4~ \$0-delay;
#X floatatom 820 104 5 0 0 0 - - - 0;
#X obj 819 157 *~ 0.5;
#X obj 820 131 delread4~ \$0-delay;
#X floatatom 937 103 5 0 0 0 - - - 0;
#X floatatom 1055 99 5 0 0 0 - - - 0;
#X obj 939 153 *~ 0.5;
#X obj 1056 152 *~ 0.5;
#X obj 938 129 delread4~ \$0-delay;
#X obj 1056 126 delread4~ \$0-delay;
#X obj 105 80 r t1;
#X obj 223 81 r t2;
#X obj 345 72 r t3;
#X obj 468 73 r t4;
#X obj 586 74 r t5;
#X obj 697 81 r t6;
#X obj 819 70 r t7;
#X obj 936 72 r t8;
#X obj 1054 76 r t9;
#X obj 141 58 r i1;
#X obj 256 54 r i2;
#X obj 378 48 r i3;
#X obj 500 51 r i4;
#X obj 614 50 r i5;
#X obj 726 53 r i6;
#X obj 853 49 r i7;
#X obj 968 49 r i8;
#X obj 1088 51 r i9;
#X text 49 80 Tiempo;
#X text 43 53 Intensidad;
#X connect 0 0 8 0 empty;
#X connect 1 0 9 0 empty;
#X connect 2 0 10 0 empty;
#X connect 3 0 7 0 empty;
#X connect 4 0 7 0 empty;
#X connect 5 0 7 0 empty;
#X connect 7 0 6 0 empty;
#X connect 8 0 3 0 empty;
#X connect 9 0 4 0 empty;
#X connect 10 0 5 0 empty;
#X connect 11 0 13 0 empty;
#X connect 12 0 7 0 empty;
#X connect 13 0 12 0 empty;
#X connect 14 0 16 0 empty;
#X connect 15 0 7 0 empty;
#X connect 16 0 15 0 empty;
#X connect 17 0 19 0 empty;
#X connect 18 0 7 0 empty;
#X connect 19 0 18 0 empty;
#X connect 20 0 22 0 empty;
#X connect 21 0 7 0 empty;
#X connect 22 0 21 0 empty;
#X connect 23 0 27 0 empty;
#X connect 24 0 28 0 empty;
#X connect 25 0 7 0 empty;
#X connect 26 0 7 0 empty;
#X connect 27 0 25 0 empty;
#X connect 28 0 26 0 empty;
#X connect 29 0 0 0 empty;
#X connect 30 0 1 0 empty;
#X connect 31 0 2 0 empty;
#X connect 32 0 11 0 empty;
#X connect 33 0 14 0 empty;
#X connect 34 0 17 0 empty;
#X connect 35 0 20 0 empty;
#X connect 36 0 23 0 empty;
#X connect 37 0 24 0 empty;
#X connect 38 0 3 1 empty;
#X connect 39 0 4 1 empty;
#X connect 40 0 5 1 empty;
#X connect 41 0 12 1 empty;
#X connect 42 0 15 1 empty;
#X connect 43 0 18 1 empty;
#X connect 44 0 21 1 empty;
#X connect 45 0 25 1 empty;
#X connect 46 0 26 1 empty;
#X restore 482 210 pd SECUENCIA DELAY;
#X connect 1 1 0 0 empty;
#X connect 1 1 10 0 empty;
#X connect 1 1 25 0 empty;
#X connect 2 0 3 0 empty;
#X connect 11 0 4 0 empty;
#X connect 12 0 5 0 empty;
#X connect 13 0 6 0 empty;
#X connect 14 0 7 0 empty;
#X connect 15 0 8 0 empty;
#X connect 16 0 9 0 empty;
#X connect 17 0 4 0 empty;
#X connect 17 0 5 0 empty;
#X connect 17 0 3 0 empty;
#X connect 17 0 6 0 empty;
#X connect 17 0 7 0 empty;
#X connect 17 0 8 0 empty;
#X connect 17 0 9 0 empty;
#X connect 20 0 17 0 empty;
#X connect 21 0 22 0 empty;
#X connect 21 0 23 0 empty;
#X connect 31 0 26 0 empty;
#X connect 31 0 1 0 empty;
#X connect 31 0 27 0 empty;
#X connect 35 0 32 0 empty;
#X connect 35 0 32 1 empty;
#X coords 0 -1 1 1 300 300 1 100 100;
#X restore 19 19 pd RiffRecorder;
